<svg viewBox="0 0 48 48" aria-label="Communities" role="img" xmlns="http://www.w3.org/2000/svg">
  <circle cx="24" cy="24" r="22" fill="#e5e5e5"/>
  <circle cx="24" cy="19.5" r="5" fill="#555"/>
  <path fill="#555" d="M14 34c0-5.5 6-9 10-9s10 3.5 10 9v2H14v-2z"/>
  <circle cx="13.5" cy="22.5" r="3" fill="#555"/>
  <path fill="#555" d="M8 34c0-3.6 3.3-6 6.5-6 1.3 0 2.5.3 3.5.8-2.7 1.6-4 3.6-4 6.2v1H8V34z"/>
  <circle cx="34.5" cy="22.5" r="3" fill="#555"/>
  <path fill="#555" d="M40 34c0-3.6-3.3-6-6.5-6-1.3 0-2.5.3-3.5.8 2.7 1.6 4 3.6 4 6.2v1H40V34z"/>
</svg>
